<?xml version="1.0" encoding="utf-8"?>
<svg xmlns="http://www.w3.org/2000/svg">
<symbol id="again" viewBox="0 0 62 62"><style>.st0{fill:#fefae0}</style><path d="M62 28V8.5h-7.8V15C49.2 8 41 3.3 31.7 3.3c-13.2 0-24.3 9.4-26.9 21.8h8C15.2 17 22.8 11 31.7 11c7 0 13.2 3.7 16.7 9.2h-5.9V28zM0 33.9v19.5h7.8V47c5 7.1 13.2 11.7 22.5 11.7 13.2 0 24.3-9.4 26.9-21.8h-8C46.8 45 39.2 51 30.3 51c-7 0-13.2-3.7-16.7-9.2h5.9V34z" class="st0"/>
</symbol>
<symbol id="high_score" viewBox="0 0 60 60"><path d="m58 25.3-5.3 23.4c-.1.5-.4.9-.8 1.2s-.9.5-1.4.5H9.3c-.5 0-1-.2-1.4-.5s-.7-.7-.8-1.2L2 25.3c-.1-.4-.1-.8.1-1.2.1-.4.4-.7.7-1s.7-.4 1.1-.4.8 0 1.2.2L17.7 29l10.4-18.5c.2-.3.5-.6.8-.8s.7-.3 1.1-.3.8.1 1.1.3.6.5.8.8L42.3 29 55 22.9c.4-.2.8-.3 1.2-.2.4 0 .8.2 1.1.4.3.3.6.6.7 1q.15.6 0 1.2" style="fill:#fefae0"/>
</symbol>
<symbol id="score" viewBox="0 0 70 70"><path d="m69.5 27.2-25.1-1.6L35 1.8l-9.4 23.7-25 1.6 19.2 16.3-6.3 24.7L35 54.6l21.6 13.6-6.3-24.7z" style="fill:#fefae0"/>
</symbol></svg>