<?xml version="1.0" encoding="utf-8"?>
<!-- Generator: Adobe Illustrator 28.1.0, SVG Export Plug-In . SVG Version: 6.00 Build 0)  -->
<svg version="1.1" id="Layer_1" xmlns="http://www.w3.org/2000/svg" xmlns:xlink="http://www.w3.org/1999/xlink" x="0px" y="0px"
	 viewBox="0 0 512 198.6" style="enable-background:new 0 0 512 198.6;" xml:space="preserve">
<style type="text/css">
	.st0{fill:#023047;}
	.st1{fill:#FC9732;}
	.st2{fill:#FEFAE0;}
</style>
<g>
	<g>
		<g>
			<path class="st0" d="M23,169.7v-22.2H0v-125h23V0h79.5v22.5h23.3v57.8H92.3V35.8H33.2v98.3h59.1V125h-23v-22.5H46V67.2h33.5v22
				h46.3v58.3h-23.3v22.2H23z"/>
			<path class="st0" d="M157.7,169.7V22.5h23V0h33.2v22.5h23.3v44.7H250V22.5h23.3V0h33.5v22.5h22.8v147.2h-33V35.8h-13.1v44.5
				h-23.3v67.2H227V80.3h-23.3V35.8h-12.8v133.9H157.7z"/>
			<path class="st0" d="M361.4,169.7V0h33.2v22.5h23v22.2h23.3v66.9h12.8V0h33.5v169.7h-33.5v-22.2h-23V125h-23.3V58.1h-12.8v111.7
				H361.4z"/>
		</g>
		<g>
			<polygon class="st0" points="24.2,171.1 24.2,148.9 1.2,148.9 1.2,23.9 24.2,23.9 24.2,1.4 103.7,1.4 103.7,23.9 127,23.9 
				127,81.7 93.5,81.7 93.5,37.2 34.4,37.2 34.4,135.5 93.5,135.5 93.5,126.4 70.5,126.4 70.5,103.9 47.2,103.9 47.2,68.6 
				80.7,68.6 80.7,90.6 127,90.6 127,148.9 103.7,148.9 103.7,171.1 			"/>
			<polygon class="st0" points="158.9,171.1 158.9,23.9 181.9,23.9 181.9,1.4 215.1,1.4 215.1,23.9 238.4,23.9 238.4,68.6 
				251.2,68.6 251.2,23.9 274.5,23.9 274.5,1.4 307.9,1.4 307.9,23.9 330.7,23.9 330.7,171.1 297.7,171.1 297.7,37.2 284.7,37.2 
				284.7,81.7 261.4,81.7 261.4,148.9 228.2,148.9 228.2,81.7 204.9,81.7 204.9,37.2 192.1,37.2 192.1,171.1 			"/>
			<polygon class="st0" points="362.6,171.1 362.6,1.4 395.8,1.4 395.8,23.9 418.8,23.9 418.8,46.1 442.1,46.1 442.1,113 454.9,113 
				454.9,1.4 488.4,1.4 488.4,171.1 454.9,171.1 454.9,148.9 431.9,148.9 431.9,126.4 408.6,126.4 408.6,59.4 395.8,59.4 
				395.8,171.1 			"/>
		</g>
		<g>
			<polygon class="st0" points="25.4,172.5 25.4,150.2 2.4,150.2 2.4,25.2 25.4,25.2 25.4,2.7 104.9,2.7 104.9,25.2 128.2,25.2 
				128.2,83 94.7,83 94.7,38.6 35.6,38.6 35.6,136.9 94.7,136.9 94.7,127.8 71.7,127.8 71.7,105.3 48.4,105.3 48.4,70 81.9,70 
				81.9,91.9 128.2,91.9 128.2,150.2 104.9,150.2 104.9,172.5 			"/>
			<polygon class="st0" points="160.1,172.5 160.1,25.2 183.1,25.2 183.1,2.7 216.3,2.7 216.3,25.2 239.6,25.2 239.6,70 252.4,70 
				252.4,25.2 275.6,25.2 275.6,2.7 309.1,2.7 309.1,25.2 331.9,25.2 331.9,172.5 298.9,172.5 298.9,38.6 285.8,38.6 285.8,83 
				262.6,83 262.6,150.2 229.4,150.2 229.4,83 206.1,83 206.1,38.6 193.3,38.6 193.3,172.5 			"/>
			<polygon class="st0" points="363.8,172.5 363.8,2.7 397,2.7 397,25.2 420,25.2 420,47.5 443.3,47.5 443.3,114.4 456.1,114.4 
				456.1,2.7 489.6,2.7 489.6,172.5 456.1,172.5 456.1,150.2 433.1,150.2 433.1,127.8 409.8,127.8 409.8,60.8 397,60.8 397,172.5 
							"/>
		</g>
		<g>
			<polygon class="st0" points="26.6,173.8 26.6,151.6 3.5,151.6 3.5,26.6 26.6,26.6 26.6,4.1 106.1,4.1 106.1,26.6 129.3,26.6 
				129.3,84.4 95.9,84.4 95.9,39.9 36.8,39.9 36.8,138.3 95.9,138.3 95.9,129.1 72.8,129.1 72.8,106.6 49.6,106.6 49.6,71.3 
				83,71.3 83,93.3 129.3,93.3 129.3,151.6 106.1,151.6 106.1,173.8 			"/>
			<polygon class="st0" points="161.2,173.8 161.2,26.6 184.3,26.6 184.3,4.1 217.5,4.1 217.5,26.6 240.7,26.6 240.7,71.3 
				253.6,71.3 253.6,26.6 276.8,26.6 276.8,4.1 310.3,4.1 310.3,26.6 333.1,26.6 333.1,173.8 300.1,173.8 300.1,39.9 287,39.9 
				287,84.4 263.8,84.4 263.8,151.6 230.5,151.6 230.5,84.4 207.3,84.4 207.3,39.9 194.4,39.9 194.4,173.8 			"/>
			<polygon class="st0" points="365,173.8 365,4.1 398.2,4.1 398.2,26.6 421.2,26.6 421.2,48.8 444.5,48.8 444.5,115.8 457.3,115.8 
				457.3,4.1 490.8,4.1 490.8,173.8 457.3,173.8 457.3,151.6 434.3,151.6 434.3,129.1 411,129.1 411,62.2 398.2,62.2 398.2,173.8 
							"/>
		</g>
		<g>
			<polygon class="st0" points="27.7,175.2 27.7,153 4.7,153 4.7,28 27.7,28 27.7,5.5 107.2,5.5 107.2,28 130.5,28 130.5,85.8 
				97,85.8 97,41.3 37.9,41.3 37.9,139.6 97,139.6 97,130.5 74,130.5 74,108 50.7,108 50.7,72.7 84.2,72.7 84.2,94.7 130.5,94.7 
				130.5,153 107.2,153 107.2,175.2 			"/>
			<polygon class="st0" points="162.4,175.2 162.4,28 185.4,28 185.4,5.5 218.6,5.5 218.6,28 241.9,28 241.9,72.7 254.7,72.7 
				254.7,28 278,28 278,5.5 311.5,5.5 311.5,28 334.2,28 334.2,175.2 301.3,175.2 301.3,41.3 288.2,41.3 288.2,85.8 264.9,85.8 
				264.9,153 231.7,153 231.7,85.8 208.4,85.8 208.4,41.3 195.6,41.3 195.6,175.2 			"/>
			<polygon class="st0" points="366.1,175.2 366.1,5.5 399.4,5.5 399.4,28 422.4,28 422.4,50.2 445.6,50.2 445.6,117.2 458.5,117.2 
				458.5,5.5 491.9,5.5 491.9,175.2 458.5,175.2 458.5,153 435.4,153 435.4,130.5 412.2,130.5 412.2,63.5 399.4,63.5 399.4,175.2 
							"/>
		</g>
		<g>
			<polygon class="st0" points="28.9,176.6 28.9,154.4 5.9,154.4 5.9,29.4 28.9,29.4 28.9,6.9 108.4,6.9 108.4,29.4 131.7,29.4 
				131.7,87.1 98.2,87.1 98.2,42.7 39.1,42.7 39.1,141 98.2,141 98.2,131.9 75.2,131.9 75.2,109.4 51.9,109.4 51.9,74.1 85.4,74.1 
				85.4,96 131.7,96 131.7,154.4 108.4,154.4 108.4,176.6 			"/>
			<polygon class="st0" points="163.6,176.6 163.6,29.4 186.6,29.4 186.6,6.9 219.8,6.9 219.8,29.4 243.1,29.4 243.1,74.1 
				255.9,74.1 255.9,29.4 279.2,29.4 279.2,6.9 312.7,6.9 312.7,29.4 335.4,29.4 335.4,176.6 302.5,176.6 302.5,42.7 289.4,42.7 
				289.4,87.1 266.1,87.1 266.1,154.4 232.9,154.4 232.9,87.1 209.6,87.1 209.6,42.7 196.8,42.7 196.8,176.6 			"/>
			<polygon class="st0" points="367.3,176.6 367.3,6.9 400.5,6.9 400.5,29.4 423.5,29.4 423.5,51.6 446.8,51.6 446.8,118.5 
				459.6,118.5 459.6,6.9 493.1,6.9 493.1,176.6 459.6,176.6 459.6,154.4 436.6,154.4 436.6,131.9 413.3,131.9 413.3,64.9 
				400.5,64.9 400.5,176.6 			"/>
		</g>
		<g>
			<polygon class="st0" points="30.1,178 30.1,155.7 7.1,155.7 7.1,30.7 30.1,30.7 30.1,8.2 109.6,8.2 109.6,30.7 132.9,30.7 
				132.9,88.5 99.4,88.5 99.4,44.1 40.3,44.1 40.3,142.4 99.4,142.4 99.4,133.2 76.4,133.2 76.4,110.8 53.1,110.8 53.1,75.4 
				86.6,75.4 86.6,97.4 132.9,97.4 132.9,155.7 109.6,155.7 109.6,178 			"/>
			<polygon class="st0" points="164.8,178 164.8,30.7 187.8,30.7 187.8,8.2 221,8.2 221,30.7 244.3,30.7 244.3,75.4 257.1,75.4 
				257.1,30.7 280.4,30.7 280.4,8.2 313.8,8.2 313.8,30.7 336.6,30.7 336.6,178 303.6,178 303.6,44.1 290.6,44.1 290.6,88.5 
				267.3,88.5 267.3,155.7 234.1,155.7 234.1,88.5 210.8,88.5 210.8,44.1 198,44.1 198,178 			"/>
			<polygon class="st0" points="368.5,178 368.5,8.2 401.7,8.2 401.7,30.7 424.7,30.7 424.7,53 448,53 448,119.9 460.8,119.9 
				460.8,8.2 494.3,8.2 494.3,178 460.8,178 460.8,155.7 437.8,155.7 437.8,133.2 414.5,133.2 414.5,66.3 401.7,66.3 401.7,178 			
				"/>
		</g>
		<g>
			<polygon class="st0" points="31.3,179.3 31.3,157.1 8.3,157.1 8.3,32.1 31.3,32.1 31.3,9.6 110.8,9.6 110.8,32.1 134.1,32.1 
				134.1,89.9 100.6,89.9 100.6,45.4 41.5,45.4 41.5,143.8 100.6,143.8 100.6,134.6 77.6,134.6 77.6,112.1 54.3,112.1 54.3,76.8 
				87.8,76.8 87.8,98.8 134.1,98.8 134.1,157.1 110.8,157.1 110.8,179.3 			"/>
			<polygon class="st0" points="166,179.3 166,32.1 189,32.1 189,9.6 222.2,9.6 222.2,32.1 245.5,32.1 245.5,76.8 258.3,76.8 
				258.3,32.1 281.6,32.1 281.6,9.6 315,9.6 315,32.1 337.8,32.1 337.8,179.3 304.8,179.3 304.8,45.4 291.7,45.4 291.7,89.9 
				268.5,89.9 268.5,157.1 235.3,157.1 235.3,89.9 212,89.9 212,45.4 199.2,45.4 199.2,179.3 			"/>
			<polygon class="st0" points="369.7,179.3 369.7,9.6 402.9,9.6 402.9,32.1 425.9,32.1 425.9,54.3 449.2,54.3 449.2,121.3 
				462,121.3 462,9.6 495.5,9.6 495.5,179.3 462,179.3 462,157.1 439,157.1 439,134.6 415.7,134.6 415.7,67.7 402.9,67.7 
				402.9,179.3 			"/>
		</g>
		<g>
			<polygon class="st0" points="32.5,180.7 32.5,158.5 9.4,158.5 9.4,33.5 32.5,33.5 32.5,11 112,11 112,33.5 135.2,33.5 
				135.2,91.3 101.8,91.3 101.8,46.8 42.7,46.8 42.7,145.1 101.8,145.1 101.8,136 78.7,136 78.7,113.5 55.5,113.5 55.5,78.2 
				88.9,78.2 88.9,100.2 135.2,100.2 135.2,158.5 112,158.5 112,180.7 			"/>
			<polygon class="st0" points="167.1,180.7 167.1,33.5 190.2,33.5 190.2,11 223.4,11 223.4,33.5 246.6,33.5 246.6,78.2 259.5,78.2 
				259.5,33.5 282.7,33.5 282.7,11 316.2,11 316.2,33.5 339,33.5 339,180.7 306,180.7 306,46.8 292.9,46.8 292.9,91.3 269.7,91.3 
				269.7,158.5 236.4,158.5 236.4,91.3 213.2,91.3 213.2,46.8 200.4,46.8 200.4,180.7 			"/>
			<polygon class="st0" points="370.9,180.7 370.9,11 404.1,11 404.1,33.5 427.1,33.5 427.1,55.7 450.4,55.7 450.4,122.6 
				463.2,122.6 463.2,11 496.7,11 496.7,180.7 463.2,180.7 463.2,158.5 440.2,158.5 440.2,136 416.9,136 416.9,69 404.1,69 
				404.1,180.7 			"/>
		</g>
		<g>
			<polygon class="st0" points="33.6,182.1 33.6,159.9 10.6,159.9 10.6,34.8 33.6,34.8 33.6,12.4 113.1,12.4 113.1,34.8 136.4,34.8 
				136.4,92.6 102.9,92.6 102.9,48.2 43.8,48.2 43.8,146.5 102.9,146.5 102.9,137.4 79.9,137.4 79.9,114.9 56.7,114.9 56.7,79.6 
				90.1,79.6 90.1,101.5 136.4,101.5 136.4,159.9 113.1,159.9 113.1,182.1 			"/>
			<polygon class="st0" points="168.3,182.1 168.3,34.8 191.3,34.8 191.3,12.4 224.5,12.4 224.5,34.8 247.8,34.8 247.8,79.6 
				260.6,79.6 260.6,34.8 283.9,34.8 283.9,12.4 317.4,12.4 317.4,34.8 340.1,34.8 340.1,182.1 307.2,182.1 307.2,48.2 294.1,48.2 
				294.1,92.6 270.8,92.6 270.8,159.9 237.6,159.9 237.6,92.6 214.3,92.6 214.3,48.2 201.5,48.2 201.5,182.1 			"/>
			<polygon class="st0" points="372,182.1 372,12.4 405.3,12.4 405.3,34.8 428.3,34.8 428.3,57.1 451.5,57.1 451.5,124 464.4,124 
				464.4,12.4 497.8,12.4 497.8,182.1 464.4,182.1 464.4,159.9 441.3,159.9 441.3,137.4 418.1,137.4 418.1,70.4 405.3,70.4 
				405.3,182.1 			"/>
		</g>
		<g>
			<polygon class="st0" points="34.8,183.5 34.8,161.2 11.8,161.2 11.8,36.2 34.8,36.2 34.8,13.7 114.3,13.7 114.3,36.2 137.6,36.2 
				137.6,94 104.1,94 104.1,49.6 45,49.6 45,147.9 104.1,147.9 104.1,138.7 81.1,138.7 81.1,116.2 57.8,116.2 57.8,80.9 91.3,80.9 
				91.3,102.9 137.6,102.9 137.6,161.2 114.3,161.2 114.3,183.5 			"/>
			<polygon class="st0" points="169.5,183.5 169.5,36.2 192.5,36.2 192.5,13.7 225.7,13.7 225.7,36.2 249,36.2 249,80.9 261.8,80.9 
				261.8,36.2 285.1,36.2 285.1,13.7 318.6,13.7 318.6,36.2 341.3,36.2 341.3,183.5 308.4,183.5 308.4,49.6 295.3,49.6 295.3,94 
				272,94 272,161.2 238.8,161.2 238.8,94 215.5,94 215.5,49.6 202.7,49.6 202.7,183.5 			"/>
			<polygon class="st0" points="373.2,183.5 373.2,13.7 406.4,13.7 406.4,36.2 429.4,36.2 429.4,58.4 452.7,58.4 452.7,125.4 
				465.5,125.4 465.5,13.7 499,13.7 499,183.5 465.5,183.5 465.5,161.2 442.5,161.2 442.5,138.7 419.3,138.7 419.3,71.8 406.4,71.8 
				406.4,183.5 			"/>
		</g>
		<g>
			<polygon class="st0" points="36,184.8 36,162.6 13,162.6 13,37.6 36,37.6 36,15.1 115.5,15.1 115.5,37.6 138.8,37.6 138.8,95.4 
				105.3,95.4 105.3,50.9 46.2,50.9 46.2,149.3 105.3,149.3 105.3,140.1 82.3,140.1 82.3,117.6 59,117.6 59,82.3 92.5,82.3 
				92.5,104.3 138.8,104.3 138.8,162.6 115.5,162.6 115.5,184.8 			"/>
			<polygon class="st0" points="170.7,184.8 170.7,37.6 193.7,37.6 193.7,15.1 226.9,15.1 226.9,37.6 250.2,37.6 250.2,82.3 
				263,82.3 263,37.6 286.3,37.6 286.3,15.1 319.7,15.1 319.7,37.6 342.5,37.6 342.5,184.8 309.5,184.8 309.5,50.9 296.5,50.9 
				296.5,95.4 273.2,95.4 273.2,162.6 240,162.6 240,95.4 216.7,95.4 216.7,50.9 203.9,50.9 203.9,184.8 			"/>
			<polygon class="st0" points="374.4,184.8 374.4,15.1 407.6,15.1 407.6,37.6 430.6,37.6 430.6,59.8 453.9,59.8 453.9,126.8 
				466.7,126.8 466.7,15.1 500.2,15.1 500.2,184.8 466.7,184.8 466.7,162.6 443.7,162.6 443.7,140.1 420.4,140.1 420.4,73.2 
				407.6,73.2 407.6,184.8 			"/>
		</g>
		<g>
			<polygon class="st0" points="37.2,186.2 37.2,164 14.2,164 14.2,39 37.2,39 37.2,16.5 116.7,16.5 116.7,39 140,39 140,96.8 
				106.5,96.8 106.5,52.3 47.4,52.3 47.4,150.6 106.5,150.6 106.5,141.5 83.5,141.5 83.5,119 60.2,119 60.2,83.7 93.7,83.7 
				93.7,105.7 140,105.7 140,164 116.7,164 116.7,186.2 			"/>
			<polygon class="st0" points="171.9,186.2 171.9,39 194.9,39 194.9,16.5 228.1,16.5 228.1,39 251.4,39 251.4,83.7 264.2,83.7 
				264.2,39 287.5,39 287.5,16.5 320.9,16.5 320.9,39 343.7,39 343.7,186.2 310.7,186.2 310.7,52.3 297.7,52.3 297.7,96.8 
				274.4,96.8 274.4,164 241.2,164 241.2,96.8 217.9,96.8 217.9,52.3 205.1,52.3 205.1,186.2 			"/>
			<polygon class="st0" points="375.6,186.2 375.6,16.5 408.8,16.5 408.8,39 431.8,39 431.8,61.2 455.1,61.2 455.1,128.1 
				467.9,128.1 467.9,16.5 501.4,16.5 501.4,186.2 467.9,186.2 467.9,164 444.9,164 444.9,141.5 421.6,141.5 421.6,74.5 408.8,74.5 
				408.8,186.2 			"/>
		</g>
		<g>
			<polygon class="st0" points="38.4,187.6 38.4,165.3 15.3,165.3 15.3,40.3 38.4,40.3 38.4,17.8 117.9,17.8 117.9,40.3 141.1,40.3 
				141.1,98.1 107.7,98.1 107.7,53.7 48.6,53.7 48.6,152 107.7,152 107.7,142.9 84.6,142.9 84.6,120.4 61.4,120.4 61.4,85.1 
				94.8,85.1 94.8,107 141.1,107 141.1,165.3 117.9,165.3 117.9,187.6 			"/>
			<polygon class="st0" points="173,187.6 173,40.3 196.1,40.3 196.1,17.8 229.3,17.8 229.3,40.3 252.5,40.3 252.5,85.1 265.4,85.1 
				265.4,40.3 288.6,40.3 288.6,17.8 322.1,17.8 322.1,40.3 344.9,40.3 344.9,187.6 311.9,187.6 311.9,53.7 298.8,53.7 298.8,98.1 
				275.6,98.1 275.6,165.3 242.3,165.3 242.3,98.1 219.1,98.1 219.1,53.7 206.3,53.7 206.3,187.6 			"/>
			<polygon class="st0" points="376.8,187.6 376.8,17.8 410,17.8 410,40.3 433,40.3 433,62.6 456.3,62.6 456.3,129.5 469.1,129.5 
				469.1,17.8 502.6,17.8 502.6,187.6 469.1,187.6 469.1,165.3 446.1,165.3 446.1,142.9 422.8,142.9 422.8,75.9 410,75.9 410,187.6 
							"/>
		</g>
		<g>
			<polygon class="st0" points="39.5,188.9 39.5,166.7 16.5,166.7 16.5,41.7 39.5,41.7 39.5,19.2 119,19.2 119,41.7 142.3,41.7 
				142.3,99.5 108.8,99.5 108.8,55 49.7,55 49.7,153.4 108.8,153.4 108.8,144.2 85.8,144.2 85.8,121.7 62.6,121.7 62.6,86.4 
				96,86.4 96,108.4 142.3,108.4 142.3,166.7 119,166.7 119,188.9 			"/>
			<polygon class="st0" points="174.2,188.9 174.2,41.7 197.2,41.7 197.2,19.2 230.4,19.2 230.4,41.7 253.7,41.7 253.7,86.4 
				266.5,86.4 266.5,41.7 289.8,41.7 289.8,19.2 323.3,19.2 323.3,41.7 346,41.7 346,188.9 313.1,188.9 313.1,55 300,55 300,99.5 
				276.7,99.5 276.7,166.7 243.5,166.7 243.5,99.5 220.3,99.5 220.3,55 207.4,55 207.4,188.9 			"/>
			<polygon class="st0" points="377.9,188.9 377.9,19.2 411.2,19.2 411.2,41.7 434.2,41.7 434.2,63.9 457.4,63.9 457.4,130.9 
				470.3,130.9 470.3,19.2 503.7,19.2 503.7,188.9 470.3,188.9 470.3,166.7 447.2,166.7 447.2,144.2 424,144.2 424,77.3 411.2,77.3 
				411.2,188.9 			"/>
		</g>
		<g>
			<polygon class="st0" points="40.7,190.3 40.7,168.1 17.7,168.1 17.7,43.1 40.7,43.1 40.7,20.6 120.2,20.6 120.2,43.1 143.5,43.1 
				143.5,100.9 110,100.9 110,56.4 50.9,56.4 50.9,154.8 110,154.8 110,145.6 87,145.6 87,123.1 63.7,123.1 63.7,87.8 97.2,87.8 
				97.2,109.8 143.5,109.8 143.5,168.1 120.2,168.1 120.2,190.3 			"/>
			<polygon class="st0" points="175.4,190.3 175.4,43.1 198.4,43.1 198.4,20.6 231.6,20.6 231.6,43.1 254.9,43.1 254.9,87.8 
				267.7,87.8 267.7,43.1 291,43.1 291,20.6 324.5,20.6 324.5,43.1 347.2,43.1 347.2,190.3 314.3,190.3 314.3,56.4 301.2,56.4 
				301.2,100.9 277.9,100.9 277.9,168.1 244.7,168.1 244.7,100.9 221.4,100.9 221.4,56.4 208.6,56.4 208.6,190.3 			"/>
			<polygon class="st0" points="379.1,190.3 379.1,20.6 412.3,20.6 412.3,43.1 435.4,43.1 435.4,65.3 458.6,65.3 458.6,132.3 
				471.4,132.3 471.4,20.6 504.9,20.6 504.9,190.3 471.4,190.3 471.4,168.1 448.4,168.1 448.4,145.6 425.2,145.6 425.2,78.6 
				412.3,78.6 412.3,190.3 			"/>
		</g>
		<g>
			<polygon class="st0" points="41.9,191.7 41.9,169.5 18.9,169.5 18.9,44.5 41.9,44.5 41.9,22 121.4,22 121.4,44.5 144.7,44.5 
				144.7,102.2 111.2,102.2 111.2,57.8 52.1,57.8 52.1,156.1 111.2,156.1 111.2,147 88.2,147 88.2,124.5 64.9,124.5 64.9,89.2 
				98.4,89.2 98.4,111.1 144.7,111.1 144.7,169.5 121.4,169.5 121.4,191.7 			"/>
			<polygon class="st0" points="176.6,191.7 176.6,44.5 199.6,44.5 199.6,22 232.8,22 232.8,44.5 256.1,44.5 256.1,89.2 268.9,89.2 
				268.9,44.5 292.2,44.5 292.2,22 325.7,22 325.7,44.5 348.4,44.5 348.4,191.7 315.5,191.7 315.5,57.8 302.4,57.8 302.4,102.2 
				279.1,102.2 279.1,169.5 245.9,169.5 245.9,102.2 222.6,102.2 222.6,57.8 209.8,57.8 209.8,191.7 			"/>
			<polygon class="st0" points="380.3,191.7 380.3,22 413.5,22 413.5,44.5 436.5,44.5 436.5,66.7 459.8,66.7 459.8,133.6 
				472.6,133.6 472.6,22 506.1,22 506.1,191.7 472.6,191.7 472.6,169.5 449.6,169.5 449.6,147 426.3,147 426.3,80 413.5,80 
				413.5,191.7 			"/>
		</g>
		<g>
			<polygon class="st0" points="43.1,193.1 43.1,170.8 20.1,170.8 20.1,45.8 43.1,45.8 43.1,23.3 122.6,23.3 122.6,45.8 145.9,45.8 
				145.9,103.6 112.4,103.6 112.4,59.2 53.3,59.2 53.3,157.5 112.4,157.5 112.4,148.3 89.4,148.3 89.4,125.9 66.1,125.9 66.1,90.5 
				99.6,90.5 99.6,112.5 145.9,112.5 145.9,170.8 122.6,170.8 122.6,193.1 			"/>
			<polygon class="st0" points="177.8,193.1 177.8,45.8 200.8,45.8 200.8,23.3 234,23.3 234,45.8 257.3,45.8 257.3,90.5 270.1,90.5 
				270.1,45.8 293.4,45.8 293.4,23.3 326.8,23.3 326.8,45.8 349.6,45.8 349.6,193.1 316.6,193.1 316.6,59.2 303.6,59.2 303.6,103.6 
				280.3,103.6 280.3,170.8 247.1,170.8 247.1,103.6 223.8,103.6 223.8,59.2 211,59.2 211,193.1 			"/>
			<polygon class="st0" points="381.5,193.1 381.5,23.3 414.7,23.3 414.7,45.8 437.7,45.8 437.7,68.1 461,68.1 461,135 473.8,135 
				473.8,23.3 507.3,23.3 507.3,193.1 473.8,193.1 473.8,170.8 450.8,170.8 450.8,148.3 427.5,148.3 427.5,81.4 414.7,81.4 
				414.7,193.1 			"/>
		</g>
		<g>
			<polygon class="st0" points="44.3,194.4 44.3,172.2 21.2,172.2 21.2,47.2 44.3,47.2 44.3,24.7 123.8,24.7 123.8,47.2 147,47.2 
				147,105 113.6,105 113.6,60.5 54.5,60.5 54.5,158.9 113.6,158.9 113.6,149.7 90.6,149.7 90.6,127.2 67.3,127.2 67.3,91.9 
				100.8,91.9 100.8,113.9 147,113.9 147,172.2 123.8,172.2 123.8,194.4 			"/>
			<polygon class="st0" points="178.9,194.4 178.9,47.2 202,47.2 202,24.7 235.2,24.7 235.2,47.2 258.4,47.2 258.4,91.9 271.3,91.9 
				271.3,47.2 294.5,47.2 294.5,24.7 328,24.7 328,47.2 350.8,47.2 350.8,194.4 317.8,194.4 317.8,60.5 304.7,60.5 304.7,105 
				281.5,105 281.5,172.2 248.2,172.2 248.2,105 225,105 225,60.5 212.2,60.5 212.2,194.4 			"/>
			<polygon class="st0" points="382.7,194.4 382.7,24.7 415.9,24.7 415.9,47.2 438.9,47.2 438.9,69.4 462.2,69.4 462.2,136.4 
				475,136.4 475,24.7 508.5,24.7 508.5,194.4 475,194.4 475,172.2 452,172.2 452,149.7 428.7,149.7 428.7,82.8 415.9,82.8 
				415.9,194.4 			"/>
		</g>
		<g>
			<polygon class="st0" points="45.4,195.8 45.4,173.6 22.4,173.6 22.4,48.6 45.4,48.6 45.4,26.1 124.9,26.1 124.9,48.6 148.2,48.6 
				148.2,106.4 114.7,106.4 114.7,61.9 55.6,61.9 55.6,160.2 114.7,160.2 114.7,151.1 91.7,151.1 91.7,128.6 68.5,128.6 68.5,93.3 
				101.9,93.3 101.9,115.3 148.2,115.3 148.2,173.6 124.9,173.6 124.9,195.8 			"/>
			<polygon class="st0" points="180.1,195.8 180.1,48.6 203.1,48.6 203.1,26.1 236.4,26.1 236.4,48.6 259.6,48.6 259.6,93.3 
				272.4,93.3 272.4,48.6 295.7,48.6 295.7,26.1 329.2,26.1 329.2,48.6 351.9,48.6 351.9,195.8 319,195.8 319,61.9 305.9,61.9 
				305.9,106.4 282.6,106.4 282.6,173.6 249.4,173.6 249.4,106.4 226.2,106.4 226.2,61.9 213.3,61.9 213.3,195.8 			"/>
			<polygon class="st0" points="383.8,195.8 383.8,26.1 417.1,26.1 417.1,48.6 440.1,48.6 440.1,70.8 463.4,70.8 463.4,137.7 
				476.2,137.7 476.2,26.1 509.6,26.1 509.6,195.8 476.2,195.8 476.2,173.6 453.2,173.6 453.2,151.1 429.9,151.1 429.9,84.1 
				417.1,84.1 417.1,195.8 			"/>
		</g>
		<g>
			<polygon class="st0" points="46.6,197.2 46.6,175 23.6,175 23.6,49.9 46.6,49.9 46.6,27.5 126.1,27.5 126.1,49.9 149.4,49.9 
				149.4,107.7 115.9,107.7 115.9,63.3 56.8,63.3 56.8,161.6 115.9,161.6 115.9,152.5 92.9,152.5 92.9,130 69.6,130 69.6,94.7 
				103.1,94.7 103.1,116.6 149.4,116.6 149.4,175 126.1,175 126.1,197.2 			"/>
			<polygon class="st0" points="181.3,197.2 181.3,49.9 204.3,49.9 204.3,27.5 237.5,27.5 237.5,49.9 260.8,49.9 260.8,94.7 
				273.6,94.7 273.6,49.9 296.9,49.9 296.9,27.5 330.4,27.5 330.4,49.9 353.1,49.9 353.1,197.2 320.2,197.2 320.2,63.3 307.1,63.3 
				307.1,107.7 283.8,107.7 283.8,175 250.6,175 250.6,107.7 227.3,107.7 227.3,63.3 214.5,63.3 214.5,197.2 			"/>
			<polygon class="st0" points="385,197.2 385,27.5 418.2,27.5 418.2,49.9 441.3,49.9 441.3,72.2 464.5,72.2 464.5,139.1 
				477.3,139.1 477.3,27.5 510.8,27.5 510.8,197.2 477.3,197.2 477.3,175 454.3,175 454.3,152.5 431.1,152.5 431.1,85.5 418.2,85.5 
				418.2,197.2 			"/>
		</g>
		<g>
			<path class="st0" d="M47.8,198.6v-22.2h-23v-125h23V28.8h79.5v22.5h23.3v57.8h-33.5V64.7H58V163h59.1v-9.2h-23v-22.5H70.8V96
				h33.5v22h46.3v58.3h-23.3v22.2H47.8z"/>
			<path class="st0" d="M182.5,198.6V51.3h23V28.8h33.2v22.5H262V96h12.8V51.3h23.3V28.8h33.5v22.5h22.8v147.2h-33V64.7h-13.1v44.5
				H285v67.2h-33.2v-67.2h-23.3V64.7h-12.8v133.9H182.5z"/>
			<path class="st0" d="M386.2,198.6V28.8h33.2v22.5h23v22.2h23.3v66.9h12.8V28.8H512v169.7h-33.5v-22.2h-23v-22.5h-23.3V86.9h-12.8
				v111.7H386.2z"/>
		</g>
	</g>
	<g>
		<path class="st1" d="M47.8,198.6v-22.2h-23v-125h23V28.8h79.5v22.5h23.3v57.8h-33.5V64.7H58V163h59.1v-9.2h-23v-22.5H70.8V96h33.5
			v22h46.3v58.3h-23.3v22.2H47.8z"/>
		<path class="st2" d="M182.5,198.6V51.3h23V28.8h33.2v22.5H262V96h12.8V51.3h23.3V28.8h33.5v22.5h22.8v147.2h-33V64.7h-13.1v44.5
			H285v67.2h-33.2v-67.2h-23.3V64.7h-12.8v133.9H182.5z"/>
		<path class="st2" d="M386.2,198.6V28.8h33.2v22.5h23v22.2h23.3v66.9h12.8V28.8H512v169.7h-33.5v-22.2h-23v-22.5h-23.3V86.9h-12.8
			v111.7H386.2z"/>
	</g>
</g>
</svg>
